<?xml version="1.0" encoding="UTF-8"?>
<svg
    xmlns="http://www.w3.org/2000/svg"
    viewBox="0 0 800 600">

    <rect width="100%" height="100%" fill="#111"/>
            <!-- stroke="#f6c177"  Soft gold -->
    <g
            fill="none"

            stroke="#ffffff"
            stroke-width="1.2"
            opacity="0.6">

<path d="M 0 100 L 0 115.17495239585867 L 10 118.64758378164598 L 20 122.04612268581715 L 30 125.33617702861432 L 40 128.48415924785473 L 50 131.45762368044433 L 60 134.22559322836494 L 70 136.75887203899882 L 80 139.03034106767518 L 90 141.01523355965946 L 100 142.69138768776878 L 110 144.0394738084042 L 120 145.0431940507793 L 130 145.6894522289844 L 140 145.96849236151257 L 150 145.87400439504222 L 160 145.40319605551147 L 170 144.55683008656797 L 180 143.33922647997818 L 190 141.7582296510863 L 200 139.82514086145204 L 210 137.55461653688008 L 220 134.9645334687281 L 230 132.07582221625483 L 240 128.91227034455017 L 250 125.50029743311156 L 260 121.8687040713989 L 270 118.04839731689964 L 280 114.07209532578304 L 290 109.97401407377423 L 300 105.78953926336193 L 310 101.55488666108685 L 320 97.30675422396686 L 330 93.08196945594783 L 340 88.91713548280943 L 350 84.84827934672825 L 360 80.91050599957714 L 370 77.13766141724426 L 380 73.56200816635055 L 390 70.2139166306416 L 400 67.12157494826695 L 410 64.31072052469378 L 420 61.804395770997964 L 430 59.62273047587594 L 440 57.78275295434126 L 450 56.29823182935411 L 460 55.17954999744861 L 470 54.43361200881492 L 480 54.063785759462945 L 490 54.06987905136569 L 500 54.44815122926293 L 510 55.1913597535686 L 520 56.28884122105118 L 530 57.72662600212135 L 540 59.48758532908248 L 550 61.551609346920024 L 560 63.89581433034464 L 570 66.4947769809323 L 580 69.32079344921932 L 590 72.34416048118885 L 600 75.53347586918159 L 610 78.85595519606214 L 620 82.2777617003799 L 630 85.7643459608872 L 640 89.28079200240288 L 650 92.79216636259758 L 660 96.26386663144692 L 670 99.6619659821204 L 680 102.95355025388056 L 690 106.1070442237259 L 700 109.09252381326817 L 710 111.8820111195801 L 720 114.4497493320618 L 730 116.77245480001852 L 740 118.8295437455855 L 750 120.60333137158014 L 760 122.07920139125515 L 770 123.24574430398967 L 780 124.09486305472419 L 790 124.6218450422711 L 800 124.8253997792504"/>
<path d="M 0 125 L 0 150.46523679970997 L 10 153.668899814544 L 20 156.69758328752147 L 30 159.52017210178082 L 40 162.10733388498363 L 50 164.4318149130894 L 60 166.46871592897304 L 70 168.1957451112275 L 80 169.5934456551137 L 90 170.64539567962575 L 100 171.33837844951623 L 110 171.6625211961327 L 120 171.61140113310734 L 130 171.18211758920518 L 140 170.37532951771055 L 150 169.19525798625807 L 160 167.64965359955033 L 170 165.7497291564737 L 180 163.51005818923812 L 190 160.94844037187596 L 200 158.08573511534348 L 210 154.94566498328436 L 220 151.554590863076 L 230 147.94126110808403 L 240 144.13653712629068 L 250 140.1730981250488 L 260 136.08512792930767 L 270 131.90798696918114 L 280 127.67787268040361 L 290 123.43147167657268 L 300 119.20560713395271 L 310 115.03688487719756 L 320 110.96134166716787 L 330 107.01409916993879 L 340 103.22902702934228 L 350 99.63841837452688 L 360 96.27268096995942 L 370 93.16004705927176 L 380 90.32630476793392 L 390 87.79455371477135 L 400 85.58498724098743 L 410 83.71470340001173 L 420 82.19754656481977 L 430 81.04398120422488 L 440 80.26099905907192 L 450 79.85206061646987 L 460 79.81707143850564 L 470 80.15239355469834 L 480 80.85089177824817 L 490 81.90201445839087 L 500 83.29190783836225 L 510 85.00356285402708 L 520 87.01699288547185 L 530 89.30944066602439 L 540 91.8556122633132 L 550 94.6279357780148 L 560 97.59684216053355 L 570 100.73106532647122 L 580 103.9979585605561 L 590 107.36382403762087 L 600 110.79425215985246 L 610 114.25446731316987 L 620 117.70967658317977 L 630 121.12541794333296 L 640 124.46790443492795 L 650 127.70436090041227 L 660 130.80334990759013 L 670 133.73508361209431 L 680 136.47171844771984 L 690 138.9876297075185 L 700 141.2596632811863 L 710 143.26736204420476 L 720 144.9931646491258 L 730 146.4225747467646 L 740 147.54429896210962 L 750 148.35035226350368 L 760 148.83612969095444 L 770 149.00044374702324 L 780 148.8455270982412 L 790 148.37700058296528 L 800 147.60380686953474"/>
<path d="M 0 150 L 0 184.73258856535165 L 10 187.37468666862367 L 20 189.75343577407418 L 30 191.84380098264705 L 40 193.62335684029702 L 50 195.07251525295197 L 60 196.17472572173278 L 70 196.9166458864565 L 80 197.28828066046975 L 90 197.28308855206956 L 100 196.89805409405318 L 110 196.13372564003478 L 120 194.9942181307177 L 130 193.4871807818747 L 140 191.6237299948827 L 150 189.41834813680651 L 160 186.88874917676316 L 170 184.05571249524058 L 180 180.94288649989608 L 190 177.5765639819537 L 200 173.9854314286639 L 210 170.20029476656464 L 220 166.25378424491043 L 230 162.18004137626775 L 240 158.0143910298422 L 250 153.79300192081809 L 260 149.5525388543876 L 270 145.329810165064 L 280 141.16141383950114 L 290 137.0833858239013 L 300 133.13085399505957 L 310 129.33770121738223 L 320 125.73624081740228 L 330 122.35690768329796 L 340 119.22796804094445 L 350 116.37525077164906 L 360 113.82190292180019 L 370 111.58817181334553 L 380 109.69121589871658 L 390 108.14494621718254 L 400 106.95990000451081 L 410 106.14314768728161 L 420 105.69823416044693 L 430 105.62515490506878 L 440 105.92036715602288 L 450 106.57683598028373 L 460 107.58411477869679 L 470 108.92845938136874 L 480 110.59297457238627 L 490 112.55779155684753 L 500 114.8002745753806 L 510 117.29525458149794 L 520 120.0152876281939 L 530 122.9309353648105 L 540 126.01106482582769 L 550 129.2231645020646 L 560 132.53367352371265 L 570 135.9083206552682 L 580 139.31246970607674 L 590 142.71146789780258 L 600 146.07099370231802 L 610 149.35740067053422 L 620 152.53805381450147 L 630 155.581655181266 L 640 158.4585553667163 L 650 161.14104785988823 L 660 163.60364328149296 L 670 165.82332078305564 L 680 167.77975410297154 L 690 169.45551003070176 L 700 170.83621730769073 L 710 171.91070429061455 L 720 172.67110401629637 L 730 173.1129256349073 L 740 173.235091515639 L 750 173.03993967351056 L 760 172.53319151390826 L 770 171.72388523937673 L 780 170.62427560760057 L 790 169.2497010669952 L 800 167.6184196234856"/>
<path d="M 0 175 L 0 217.13837985606293 L 10 218.97181868628184 L 20 220.47398909836616 L 30 221.62820809104633 L 40 222.42100330991522 L 50 222.84225250717924 L 60 222.885290180916 L 70 222.54698031458503 L 80 221.8277544746549 L 90 220.73161486878283 L 100 219.26610231556842 L 110 217.44222942602528 L 120 215.27437964308638 L 130 212.78017312522718 L 140 209.98030079026225 L 150 206.89832815225412 L 160 203.56047088510158 L 170 199.99534432775255 L 180 196.23368940529883 L 190 192.30807767487482 L 200 188.2525984129529 L 210 184.10253083923322 L 220 179.8940047200838 L 230 175.66365270992105 L 240 171.44825787088322 L 250 167.2843998588179 L 260 163.2081032765071 L 270 159.25449167306445 L 280 155.45745061177035 L 290 151.8493031378419 L 300 148.46050085365962 L 310 145.31933365304246 L 320 142.4516609798254 L 330 139.880667261118 L 340 137.62664392435036 L 350 135.70680014195673 L 360 134.1351041609559 L 370 132.92215676962232 L 380 132.0750981329521 L 390 131.5975488959126 L 400 131.48958611184503 L 410 131.74775420627986 L 420 132.36511083729067 L 430 133.33130716583673 L 440 134.63270170680414 L 450 136.25250659706586 L 460 138.17096479418723 L 470 140.3655564116215 L 480 142.81123210644253 L 490 145.48067116674574 L 500 148.34456170049026 L 510 151.3719001082086 L 520 154.53030683086007 L 530 157.78635520305735 L 540 161.10591011255784 L 550 164.4544730705707 L 560 167.79753023504352 L 570 171.10089990128327 L 580 174.3310759813012 L 590 177.45556403508365 L 600 180.44320649315208 L 610 183.26449381952384 L 620 185.89185850641994 L 630 188.2999489653572 L 640 190.4658805818818 L 650 192.3694614311113 L 660 193.99339040615845 L 670 195.32342578885851 L 680 196.3485225892338 L 690 197.06093729384202 L 700 197.45629899041677 L 710 197.53364617375894 L 720 197.29542888229005 L 730 196.7474761625916 L 740 195.89892920714956 L 750 194.7621408549147 L 760 193.35254248174118 L 770 191.6884796348955 L 780 189.79101807936541 L 790 187.68372222051408 L 800 185.3924081447376"/>
<path d="M 0 200 L 0 247.00329314472035 L 10 247.84861503898475 L 20 248.32132210501752 L 30 248.41462022302304 L 40 248.1252477515253 L 50 247.45351393899196 L 60 246.40330228774505 L 70 244.98203882041645 L 80 243.2006255483495 L 90 241.07333978754605 L 100 238.61770030755156 L 110 235.85430162867124 L 120 232.80661809982251 L 130 229.50077968998878 L 140 225.96532170764965 L 150 222.23091092191055 L 160 218.33005079375258 L 170 214.29676873353276 L 180 210.1662884795072 L 190 205.97469083994545 L 200 201.75856615688113 L 210 197.55466193154427 L 220 193.39952909923235 L 230 189.329170454322 L 240 185.37869470417576 L 250 181.58197957407393 L 260 177.97134729457534 L 270 174.57725567878038 L 280 171.42800784108243 L 290 168.5494834227008 L 300 165.96489397445652 L 310 163.69456490602303 L 320 161.75574614567188 L 330 160.16245336798474 L 340 158.92534134198038 L 350 158.05161063165693 L 360 157.54494854827536 L 370 157.40550491213097 L 380 157.62990283448957 L 390 158.21128438126772 L 400 159.13939063239988 L 410 160.40067530812868 L 420 161.9784507991014 L 430 163.85306511449312 L 440 166.002107954628 L 450 168.40064382480173 L 460 171.0214698381214 L 470 173.83539560984647 L 480 176.81154242639332 L 490 179.91765868103917 L 500 183.12044840733427 L 510 186.3859096119143 L 520 189.67967901207922 L 530 192.96737972113533 L 540 196.21496839669902 L 550 199.38907837420808 L 560 202.45735534970646 L 570 205.38878225213713 L 580 208.1539900551301 L 590 210.72555142050913 L 600 213.07825423903307 L 610 215.1893523365038 L 620 217.03879084327968 L 630 218.60940398013292 L 640 219.88708329072784 L 650 220.86091464800057 L 660 221.523282675418 L 670 221.8699415513429 L 680 221.90005150226386 L 690 221.61618063508274 L 700 221.02427210654446 L 710 220.13357697576532 L 720 218.95655343018404 L 730 217.50873341268417 L 740 215.80855800473748 L 750 213.87718323392747 L 760 211.7382582709938 L 770 209.41767825862067 L 780 206.94331426880808 L 790 204.3447231152642 L 800 201.65283994954342"/>
<path d="M 0 225 L 0 273.8681025923366 L 10 273.629605174984 L 20 273.0074857857014 L 30 272.00550391659146 L 40 270.63096504094824 L 50 268.89465438296963 L 60 266.81073652561116 L 70 264.3966218412453 L 80 261.6728010598138 L 90 258.6626496061024 L 100 255.3922036384528 L 110 251.88991000267131 L 120 248.1863525742686 L 130 244.31395769690045 L 140 240.3066816326214 L 150 236.19968311824138 L 160 232.02898426990987 L 170 227.83112319356627 L 180 223.6428017409353 L 190 219.50053189849808 L 200 215.44028430985546 L 210 211.49714240999498 L 220 207.70496559339068 L 230 204.09606474718115 L 240 200.70089335678526 L 250 197.54775723547056 L 260 194.6625457431404 L 270 192.0684871448182 L 280 189.78593051812103 L 290 187.8321563538482 L 300 186.22121770730257 L 310 184.96381345298522 L 320 184.06719487489707 L 330 183.53510649204873 L 340 183.36776167724247 L 350 183.56185328016005 L 360 184.1105991167334 L 370 185.00382183917614 L 380 186.22806235838567 L 390 187.76672565610835 L 400 189.60025750163308 L 410 191.7063502800634 L 420 194.0601758494813 L 430 196.6346430754611 L 440 199.40067744608737 L 450 202.3275199513379 L 460 205.383042219591 L 470 208.53407474301403 L 480 211.7467448942952 L 490 214.98682134087468 L 500 218.22006140048003 L 510 221.41255785398866 L 520 224.53108173870203 L 530 227.5434176869474 L 540 230.41868845110238 L 550 233.1276653658971 L 560 235.64306164109132 L 570 237.93980555091915 L 580 239.99529078931133 L 590 241.7896014898114 L 600 243.30570966399716 L 610 244.529643089554 L 620 245.45062197614033 L 630 246.06116305087468 L 640 246.35715003251067 L 650 246.3378698008831 L 660 246.00601391262836 L 670 245.36764546205393 L 680 244.43213163388526 L 690 243.21204263896354 L 700 241.7230180613675 L 710 239.98360197251031 L 720 238.0150484812416 L 730 235.8410996857398 L 740 233.48773827003055 L 750 230.98291724254992 L 760 228.3562695437385 L 770 225.63880045190237 L 780 222.86256588949377 L 790 220.0603398738103 L 800 217.26527446547152"/>
<path d="M 0 250 L 0 297.5348339586985 L 10 296.2092324778885 L 20 294.5204138473067 L 30 292.4824239445733 L 40 290.11255834609324 L 50 287.431197182138 L 60 284.46160975056205 L 70 281.22973082077715 L 80 277.7639108410803 L 90 274.094642521837 L 100 270.2542665017876 L 110 266.2766590125185 L 120 262.1969046348531 L 130 258.0509573887876 L 140 253.87529351414614 L 150 249.70655938120927 L 160 245.58121801835972 L 170 241.53519775681553 L 180 237.60354647065603 L 190 233.82009483380514 L 200 230.21713192499604 L 210 226.82509638789656 L 220 223.67228619777413 L 230 220.78458989987385 L 240 218.18524196993894 L 250 215.894604706161 L 260 213.92997879672362 L 270 212.3054444206411 L 280 211.0317344346579 L 290 210.1161408786122 L 300 209.56245569907756 L 310 209.37094624960054 L 320 209.5383657788649 L 330 210.05799876909614 L 340 210.91974063946208 L 350 212.11021098659538 L 360 213.6128992000854 L 370 215.40834096819623 L 380 217.47432388138793 L 390 219.78612005151686 L 400 222.316743395767 L 410 225.03722898909388 L 420 227.9169316696971 L 430 230.92384089096666 L 440 234.02490865237024 L 450 237.18638721247993 L 460 240.37417319105379 L 470 243.55415460475692 L 480 246.6925573533451 L 490 249.75628768021053 L 500 252.71326717303918 L 510 255.53275694651813 L 520 258.18566775880396 L 530 260.64485295571416 L 540 262.8853813099042 L 550 264.8847870249176 L 560 266.6232944039006 L 570 268.08401493767303 L 580 269.25311484417597 L 590 270.1199513883087 L 600 270.67717662484915 L 610 270.92080753438 L 620 270.8502618596499 L 630 270.46835929420433 L 640 269.78128802298005 L 650 268.7985369623902 L 660 267.5327943917562 L 670 265.99981400532033 L 680 264.21824974112604 L 690 262.209461056511 L 700 259.9972906166828 L 710 257.6078166398725 L 720 255.06908239711194 L 730 252.41080559421823 L 740 249.66407056578544 L 750 246.86100638386597 L 760 244.03445412583366 L 770 241.21762665524494 L 780 238.44376434525503 L 790 235.74579021553976 L 800 233.1559679603173"/>
<path d="M 0 275 L 0 318.08462557341977 L 10 315.7614845666251 L 20 313.1252260167582 L 30 310.1990064886271 L 40 307.0086523544709 L 50 303.5824102722229 L 60 299.95067402811685 L 70 296.14569045025166 L 80 292.2012473075402 L 90 288.1523462872111 L 100 284.0348642919355 L 110 279.88520641323476 L 120 275.7399540199435 L 130 271.6355114483241 L 140 267.60775479350065 L 150 263.69168628004707 L 160 259.9210976330708 L 170 256.32824578052947 L 180 252.9435440937158 L 190 249.79527221709088 L 200 246.90930735247966 L 210 244.30887964794383 L 220 242.01435410054913 L 230 240.04304111716323 L 240 238.40903759100277 L 250 237.1231000467559 L 260 236.19255108678854 L 270 235.6212200383954 L 280 235.40941836060537 L 290 235.55395002210503 L 300 236.0481567128695 L 310 236.88199740457358 L 320 238.04216143226586 L 330 239.51221393555107 L 340 241.2727721749725 L 350 243.30171093164492 L 360 245.5743949085238 L 370 248.06393578290695 L 380 250.74147131452926 L 390 253.57646369437668 L 400 256.5370141283064 L 410 259.59019048861114 L 420 262.70236473742455 L 430 265.8395567296056 L 440 268.9677809404367 L 450 272.053392635726 L 460 275.063430009006 L 470 277.9659488523839 L 480 280.7303464038078 L 490 283.32767112329793 L 500 285.7309152929551 L 510 287.9152875088695 L 520 289.8584623356846 L 530 291.5408046244828 L 540 292.9455662495591 L 550 294.0590532969835 L 560 294.8707620348404 L 570 295.3734823087134 L 580 295.56336733320614 L 590 295.43996918778964 L 600 295.00623966966106 L 610 294.26849650414783 L 620 293.23635526100946 L 630 291.92262766930185 L 640 290.3431873608298 L 650 288.516804399246 L 660 286.46495026529044 L 670 284.21157526536615 L 680 281.7828606076453 L 690 279.20694764442607 L 700 276.5136470089642 L 710 273.7341305771953 L 720 270.90060935760783 L 730 268.04600055430797 L 740 265.2035871576039 L 750 262.4066734921412 L 760 259.6882401939794 L 770 257.08060209460297 L 780 254.61507246162873 L 790 252.3216369832014 L 800 250.2286407863686"/>
<path d="M 0 300 L 0 335.8706939075893 L 10 332.7245888593189 L 20 329.3408063945471 L 30 325.7496341725765 L 40 321.983217632576 L 50 318.07524814594916 L 60 314.06063623477957 L 70 309.97517309682263 L 80 305.85518379313186 L 90 301.73717553655524 L 100 297.65748456720183 L 110 293.65192511408054 L 120 289.75544392032106 L 130 286.00178375293245 L 140 282.4231592274896 L 150 279.04994815437686 L 160 275.9104014575053 L 170 273.0303745302946 L 180 270.43308267905513 L 190 268.1388830628527 L 200 266.16508527389664 L 210 264.5257924161235 L 220 263.23177423479586 L 230 262.29037352966395 L 240 261.7054467517339 L 250 261.47733934227807 L 260 261.6028960258202 L 270 262.0755059198984 L 280 262.8851819769317 L 290 264.01867393097075 L 300 265.4596135879138 L 310 267.18869097525845 L 320 269.1838595598546 L 330 271.42056845250085 L 340 273.8720192494701 L 350 276.5094449158538 L 360 279.30240789641226 L 370 282.2191144486123 L 380 285.2267420316177 L 390 288.2917764557837 L 400 291.3803554009813 L 410 294.4586148497929 L 420 297.49303495391075 L 430 300.4507818591851 L 440 303.30004205666086 L 450 306.01034590316425 L 460 308.5528770648064 L 470 310.9007647790469 L 480 313.0293560042852 L 490 314.91646472859145 L 500 316.5425959391056 L 510 317.89114200854414 L 520 318.9485495325898 L 530 319.70445494892965 L 540 320.15178758238926 L 550 320.2868390878281 L 560 320.10929859995804 L 570 319.6222532436355 L 580 318.83215400601716 L 590 317.7487473197762 L 600 316.3849730508778 L 610 314.7568299217559 L 620 312.8832097277509 L 630 310.78570201808316 L 640 308.488371209319 L 650 306.0175083762611 L 660 303.40136021969545 L 670 300.6698379399072 L 680 297.8542089470373 L 690 294.98677451216986 L 700 292.1005366047877 L 710 289.22885727148696 L 720 286.4051139865134 L 730 283.6623544460027 L 740 281.0329542843764 L 750 278.54828116307334 L 760 276.23836861898945 L 770 274.1316029632553 L 780 272.25442639129113 L 790 270.63105930371495 L 800 269.2832446462699"/>
<path d="M 0 325 L 0 351.4870309106416 L 10 347.7621391662697 L 20 343.89374757709174 L 30 339.9166677410594 L 40 335.8665970452867 L 50 331.77977208815355 L 60 327.69261718891323 L 70 323.64139147034973 L 80 319.6618380131692 L 90 315.78883855905525 L 100 312.0560771828969 L 110 308.4957162641747 L 120 305.1380879637679 L 130 302.011404256771 L 140 299.141488385828 L 150 296.55153038487435 L 160 294.2618690821694 L 170 292.28980272650244 L 180 290.6494300941284 L 190 289.351523629184 L 200 288.40343585010356 L 210 287.80903992209556 L 220 287.5687049543761 L 230 287.6793062339965 L 240 288.1342702592162 L 250 288.9236540879365 L 260 290.03425817421083 L 270 291.4497715316872 L 280 293.15094774036993 L 290 295.1158100055251 L 300 297.3198831879665 L 310 299.73645045624636 L 320 302.3368319661108 L 330 305.0906827534192 L 340 307.9663068357523 L 350 310.93098435705303 L 360 313.9513084804633 L 370 316.993528638321 L 380 320.02389668603377 L 390 323.00901247885537 L 400 325.9161653977369 L 410 328.7136683923406 L 420 331.37118118554514 L 430 333.86001939360193 L 440 336.1534464583916 L 450 338.22694546157487 L 460 340.0584680930854 L 470 341.6286582763465 L 480 342.92104820750944 L 490 343.9222248433568 L 500 344.62196516951184 L 510 345.0133388942753 L 520 345.09277754063567 L 530 344.86010924648974 L 540 344.31855892749974 L 550 343.4747138048433 L 560 342.33845464791597 L 570 340.92285342633454 L 580 339.2440384029237 L 590 337.3210280263702 L 600 335.1755352956288 L 610 332.83174456482845 L 620 330.31606303438105 L 630 327.6568494284749 L 640 324.88412258859057 L 650 322.0292529148101 L 660 319.124639759484 L 670 316.20337801953366 L 680 313.2989172828968 L 690 310.4447169602552 L 700 307.67390087447706 L 710 305.01891478673537 L 720 302.5111903099595 L 730 300.1808185974291 L 740 298.056237097541 L 750 296.1639325360473 L 760 294.5281631256616 L 770 293.17070281147494 L 780 292.11061014102756 L 790 291.3640241023317 L 800 290.9439890040954"/>
<path d="M 0 350 L 0 365.7156278855191 L 10 361.70412422761103 L 20 357.6537729265625 L 30 353.6009071364817 L 40 349.58170027523687 L 50 345.6318153930663 L 60 341.78606007566697 L 70 338.0780503017746 L 80 334.5398865847546 L 90 331.20184560404186 L 100 328.09209037663265 L 110 325.2364018327881 L 120 322.65793444553543 L 130 320.3769983225839 L 140 318.4108699043174 L 150 316.7736331252397 L 160 315.4760525914876 L 170 314.525480006837 L 180 313.92579474721634 L 190 313.677379142416 L 200 313.77712867687194 L 210 314.2184969725547 L 220 314.9915750696092 L 230 316.083204177926 L 240 317.47712073871605 L 250 319.154132312728 L 260 321.09232250422997 L 270 323.26728284032924 L 280 325.6523692565323 L 290 328.2189805943205 L 300 330.9368562973962 L 310 333.7743903023154 L 320 336.6989579583776 L 330 339.6772526824989 L 340 342.6756289586269 L 350 345.6604482290403 L 360 348.5984241972145 L 370 351.4569640691126 L 380 354.20450230169683 L 390 356.81082350372986 L 400 359.247371243781 L 410 361.48753966266855 L 420 363.5069449609313 L 430 365.2836740345939 L 440 366.7985077624383 L 450 368.03511670292517 L 460 368.98022723626366 L 470 369.6237564841346 L 480 369.95891465326036 L 490 369.982273776242 L 500 369.69380216057897 L 510 369.0968642011756 L 520 368.1981855594653 L 530 367.00778406008436 L 540 365.538867000309 L 550 363.80769590479304 L 560 361.83342008513694 L 570 359.63788067720475 L 580 357.2453871257546 L 590 354.68246836288597 L 600 351.97760118126763 L 610 349.1609185325434 L 620 346.2639006834259 L 630 343.3190523347534 L 640 340.35956895047667 L 650 337.41899565273883 L 660 334.53088211481725 L 670 331.7284369249568 L 680 329.0441849006184 L 690 326.5096308043317 L 700 324.1549328494524 L 710 322.0085892873144 L 720 320.09714123749194 L 730 318.4448947614497 L 740 317.07366498836166 L 750 316.0025448822446 L 760 315.24770099395664 L 770 314.82219827252936 L 780 314.7358557203956 L 790 314.9951343692627 L 800 315.6030587307215"/>
<path d="M 0 375 L 0 379.45693864276154 L 10 375.47312422370095 L 20 371.556403688088 L 30 367.74150172802496 L 40 364.06195720492246 L 50 360.54979948384323 L 60 357.23524024277606 L 70 354.1463838065971 L 80 351.3089588694732 L 90 348.74607425492644 L 100 346.4780011218496 L 110 344.5219837598508 L 120 342.89208083105893 L 130 341.5990386108043 L 140 340.6501974594428 L 150 340.0494324252212 L 160 339.7971285368041 L 170 339.89019099731155 L 180 340.32209014291635 L 190 341.0829406817072 L 200 342.1596143861023 L 210 343.53588507803386 L 220 345.1926044237328 L 230 347.10790674747005 L 240 349.25744078410264 L 250 351.6146260216438 L 260 354.15093103999095 L 270 356.8361710328619 L 280 359.63882150909166 L 290 362.5263450086346 L 300 365.4655275395058 L 310 368.42282134576686 L 320 371.36469055447566 L 330 374.2579562218941 L 340 377.0701373064523 L 350 379.7697841379377 L 360 382.3268010286745 L 370 384.7127547823328 L 380 386.9011659983483 L 390 388.8677802433122 L 400 390.5908163633894 L 410 392.05118944178304 L 420 393.23270616021483 L 430 394.12223060075763 L 440 394.70981882137556 L 450 394.9888208522257 L 460 394.95594908700895 L 470 394.61131238116116 L 480 393.95841551306165 L 490 393.0041240122728 L 500 391.75859470661607 L 510 390.2351726841732 L 520 388.4502557036192 L 530 386.4231274132767 L 540 384.17576105266147 L 550 381.73259560692236 L 560 379.12028666150525 L 570 376.36743445881325 L 580 373.5042918880529 L 590 370.56245534154584 L 600 367.57454154353286 L 610 364.57385359916003 L 620 361.59403962051164 L 630 358.6687473621314 L 640 355.83127833970275 L 650 353.11424491202825 L 660 350.5492337780735 L 670 348.1664792779267 L 680 345.9945497896734 L 690 344.0600503843781 L 700 342.38734473988933 L 710 340.9982991226473 L 720 339.91205102700076 L 730 339.1448048159033 L 740 338.7096564377344 L 750 338.6164490040453 L 760 338.87166070517236 L 770 339.4783262179575 L 780 340.4359924254999 L 790 341.74070892625997 L 800 343.38505346238503"/>
<path d="M 0 400 L 0 393.6497916755934 L 10 390.00226600980966 L 20 386.51977686374033 L 30 383.2324617593878 L 40 380.1683569254748 L 50 377.3531291900531 L 60 374.80983189520043 L 70 372.55868724171125 L 80 370.6168972068109 L 90 368.99848489172 L 100 367.7141678512188 L 110 366.77126463725773 L 120 366.17363545633253 L 130 365.9216574991077 L 140 366.01223515404496 L 150 366.43884496803713 L 160 367.1916148697471 L 170 368.25743682897775 L 180 369.6201117913724 L 190 371.26052540540553 L 200 373.1568527511852 L 210 375.2847899911315 L 220 377.61781059400187 L 230 380.12744353869584 L 240 382.7835706852246 L 250 385.5547403093776 L 260 388.4084936368443 L 270 391.31170108348283 L 280 394.23090481233 L 290 397.1326641558002 L 300 399.9839004239297 L 310 402.7522376267582 L 320 405.4063356809442 L 330 407.9162127470336 L 340 410.2535534537085 L 350 412.39199990770453 L 360 414.30742256149694 L 370 415.9781682135685 L 380 417.38528264606 L 390 418.5127056595713 L 400 419.3474365422661 L 410 419.87966830746734 L 420 420.1028893476414 L 430 420.0139514799158 L 440 419.61310369578393 L 450 418.9039912720467 L 460 417.89362024787914 L 470 416.5922876207053 L 480 415.0134779578491 L 490 413.17372745824116 L 500 411.0924568254451 L 510 408.7917746266359 L 520 406.2962531087917 L 530 403.632678720272 L 540 400.8297798403892 L 550 397.917934448979 L 560 394.92886067005077 L 570 391.8952932963256 L 580 388.85064954311287 L 590 385.8286873891274 L 600 382.8631599374008 L 610 379.98746927064576 L 620 377.2343232818703 L 630 374.63539893263555 L 640 372.22101532840645 L 650 370.0198199035564 L 660 368.0584908787503 L 670 366.3614589919126 L 680 364.95065131242075 L 690 363.8452597284454 L 700 363.0615364516914 L 710 362.6126186146211 L 720 362.50838374526234 L 730 362.7553375967973 L 740 363.35653548639146 L 750 364.31153796335457 L 760 365.61640128408607 L 770 367.26370282375996 L 780 369.24260120581687 L 790 371.5389305835514 L 800 374.13532816685984"/>
<path d="M 0 425 L 0 409.18790341174576 L 10 406.1522638286227 L 20 403.36304208914174 L 30 400.8432265339346 L 40 398.6129806716757 L 50 396.689454243496 L 60 395.086624701111 L 70 393.8151706504845 L 80 392.88237849279113 L 90 392.29208316215176 L 100 392.04464351842444 L 110 392.13695260665077 L 120 392.562482646042 L 130 393.31136426413525 L 140 394.37049914941736 L 150 395.72370496173403 L 160 397.35189101750353 L 170 399.2332629593615 L 180 401.3435543304493 L 190 403.6562827050067 L 200 406.1430277819359 L 210 408.773728628998 L 220 411.5169970744891 L 230 414.34044408251475 L 240 417.2110158189485 L 250 420.09533601910624 L 260 422.96005120605724 L 270 425.7721752809366 L 280 428.4994300138982 L 290 431.11057800637957 L 300 433.57574477171323 L 310 435.8667266910482 L 320 437.9572817439454 L 330 439.82340008644155 L 340 441.4435517521203 L 350 442.7989089817397 L 360 443.8735409419522 L 370 444.65457887106163 L 380 445.1323499868121 L 390 445.30047880493106 L 400 445.1559548444098 L 410 444.6991660330249 L 420 443.933897471012 L 430 442.8672955586461 L 440 441.5097978412875 L 450 439.87502926973514 L 460 437.9796659110487 L 470 435.8432674719768 L 480 433.48808031050015 L 490 430.93881290761783 L 500 428.22238604841175 L 510 425.36766021584594 L 520 422.4051429301468 L 530 419.36667896867004 L 540 416.2851265738712 L 550 413.19402289862234 L 560 410.12724204724736 L 570 407.11864914618025 L 580 404.2017539193291 L 590 401.4093672496431 L 600 398.7732641799497 L 610 396.3238567431524 L 620 394.0898799149663 L 630 392.0980938524921 L 640 390.37300542038696 L 650 388.9366118147797 L 660 387.80816887533155 L 670 387.003986430131 L 680 386.5372527489068 L 690 386.4178898900185 L 700 386.65244141874393 L 710 387.2439936515965 L 720 388.1921312470043 L 730 389.4929276199957 L 740 391.13897031099594 L 750 393.1194210899117 L 760 395.420110229854 L 770 398.02366404358406 L 780 400.90966444348214 L 790 404.0548389658402 L 800 407.43327939577756"/>
<path d="M 0 450 L 0 426.84044805054634 L 10 424.6349537905534 L 20 422.7336245640759 L 30 421.150382341385 L 40 419.89585677034614 L 50 418.97729193975124 L 60 418.39848722281283 L 70 418.1597727588389 L 80 418.2580197844657 L 90 418.6866856771533 L 100 419.43589322643885 L 110 420.49254330615076 L 120 421.8404597868548 L 130 423.46056520554345 L 140 425.33108540223697 L 150 427.42778104378783 L 160 429.7242036866794 L 170 432.1919737856511 L 180 434.8010778360269 L 190 437.52018164684716 L 200 440.31695658121964 L 210 443.15841547131123 L 220 446.0112548193922 L 230 448.8421998342669 L 240 451.61834882491365 L 250 454.3075134804613 L 260 456.87855160770414 L 270 459.3016889737488 L 280 461.5488270113541 L 290 463.5938332869519 L 300 465.4128118048007 L 310 466.984350423496 L 320 468.28974289109595 L 330 469.3131832601369 L 340 470.0419307212407 L 350 470.466443191089 L 360 470.5804783042875 L 370 470.38116078591827 L 380 469.86901551911666 L 390 469.04796596642774 L 400 467.925297951553 L 410 466.51158915591026 L 420 464.8206050287202 L 430 462.869162146655 L 440 460.676960386066 L 450 458.266385584176 L 460 455.6622846622398 L 470 452.89171546058014 L 480 449.9836737898204 L 490 446.9688004320161 L 500 443.8790710274368 L 510 440.74747195544717 L 520 437.60766545954846 L 530 434.4936473757523 L 540 431.43940089897296 L 550 428.47854986328196 L 560 425.64401501825887 L 570 422.9676767552191 L 580 420.48004767409543 L 590 418.2099582848083 L 600 416.18425900705415 L 610 414.4275414708667 L 620 412.96188192866276 L 630 411.8066093697038 L 640 410.9781006821543 L 650 410.4896049386802 L 660 410.35109859146314 L 670 410.56917305453203 L 680 411.1469558284832 L 690 412.0840659882213 L 700 413.37660451162066 L 710 415.0171795794299 L 720 416.9949666277664 L 730 419.2958025876801 L 740 421.902313404959 L 750 424.7940736010143 L 760 427.9477963156473 L 770 431.33755196794834 L 780 434.9350133855711 L 790 438.70972498799597 L 800 442.6293933688208"/>
<path d="M 0 475 L 0 447.1837769801192 L 10 445.9501502003106 L 20 445.04984897643635 L 30 444.48662703220384 L 40 444.2607755581046 L 50 444.3691336399991 L 60 444.80513338297254 L 70 445.5588792457556 L 80 446.6172607587566 L 90 447.96409746485966 L 100 449.58031459993157 L 110 451.4441477226766 L 120 453.5313742141495 L 130 455.8155692987774 L 140 458.2683839938274 L 150 460.8598421753447 L 160 463.55865375785197 L 170 466.3325408244597 L 180 469.1485734150846 L 190 471.9735115845037 L 200 474.7741502799374 L 210 477.51766356037933 L 220 480.17194468723756 L 230 482.70593865796116 L 240 485.0899638307557 L 250 487.2960193984941 L 260 489.29807561238727 L 270 491.0723438294803 L 280 492.5975236608357 L 290 493.8550247273368 L 300 494.8291607850815 L 310 495.5073142597925 L 320 495.88006952676875 L 330 495.9413135866684 L 340 495.6883031147138 L 350 495.1216971984614 L 360 494.2455554237174 L 370 493.06730131604695 L 380 491.5976514931512 L 390 489.8505112276855 L 400 487.842837457422 L 410 485.5944706066482 L 420 483.12793689606207 L 430 480.46822311504735 L 440 477.64252610711185 L 450 474.6799794736846 L 460 471.61136023084225 L 470 468.46877835557655 L 480 465.2853523309039 L 490 462.09487394071624 L 500 458.93146567437157 L 510 455.8292341765186 L 520 452.8219232187914 L 530 449.9425696763788 L 540 447.22316596399855 L 550 444.6943323227788 L 560 442.3850022525811 L 570 440.3221242543683 L 580 438.53038288561265 L 590 437.0319419400726 L 600 435.8462123434456 L 610 434.98964711062865 L 620 434.4755654410392 L 630 434.3140077383493 L 640 434.51162303297167 L 650 435.0715899627689 L 660 435.9935721329775 L 670 437.2737083335673 L 680 438.90463774463495 L 690 440.87555991141613 L 700 443.17232892358976 L 710 445.777580892195 L 720 448.67089348510916 L 730 451.8289759619499 L 740 455.22588784467257 L 750 458.83328407408163 L 760 462.620684237802 L 770 466.55576321463633 L 780 470.60466036604055 L 790 474.7323042198494 L 800 478.9027494362119"/>
<path d="M 0 500 L 0 470.55038467247783 L 10 470.34146167796627 L 20 470.4640470869592 L 30 470.9115374436336 L 40 471.67400848617007 L 50 472.7383279365715 L 60 474.088300495971 L 70 475.70484356223517 L 80 477.56619187941 L 90 479.64812903927026 L 100 481.9242434868173 L 110 484.36620643670284 L 120 486.9440688886832 L 130 489.6265747395247 L 140 492.3814868281749 L 150 495.1759226221135 L 160 497.97669615686175 L 170 500.75066277864227 L 180 503.46506321274205 L 190 506.0878634875235 L 200 508.5880872861708 L 210 510.93613737473277 L 220 513.1041028650571 L 230 515.0660492137118 L 240 516.7982880315159 L 250 518.2796239811416 L 260 519.4915762703433 L 270 520.4185725034407 L 280 521.0481129311682 L 290 521.3709034361249 L 300 521.3809559048532 L 310 521.0756549648929 L 320 520.4557904027383 L 330 519.5255549230739 L 340 518.2925072575555 L 350 516.7675009792431 L 360 514.9645797231012 L 370 512.9008398503288 L 380 510.596261921271 L 390 508.07351265504707 L 400 505.35771935065367 L 410 502.4762190212011 L 420 499.4582847473605 L 430 496.33483198546423 L 440 493.13810776774494 L 450 489.90136590487833 L 460 486.65853144258557 L 470 483.4438577331383 L 480 480.29157955809455 L 490 477.23556577971755 L 500 474.30897500488373 L 510 471.54391771679127 L 520 468.9711282667316 L 530 466.6196500211969 L 540 464.5165368296377 L 550 462.68657381655566 L 560 461.15202030991463 L 570 459.9323774980076 L 580 459.0441831611084 L 590 458.5008355549222 L 600 458.3124482327215 L 610 458.48573728499497 L 620 459.0239421525423 L 630 459.9267808344221 L 640 461.1904399693554 L 650 462.80759992152167 L 660 464.76749465263316 L 670 467.0560058152147 L 680 469.65579016062895 L 690 472.54643902296385 L 700 475.704668319776 L 710 479.1045372060475 L 720 482.7176932316138 L 730 486.5136415876091 L 740 490.4600357868071 L 750 494.52298690850085 L 760 498.66738835291846 L 770 502.85725289495946 L 780 507.05605870381646 L 790 511.2271009050407 L 800 515.333845205735"/>
<path d="M 0 525 L 0 496.99967725302463 L 10 497.77501128543577 L 20 498.8494417921049 L 30 500.2067482017902 L 40 501.8278295815519 L 50 503.6909093320158 L 60 505.7717667172751 L 70 508.04399288120544 L 80 510.4792687571424 L 90 513.0476620590448 L 100 515.7179403516226 L 110 518.4578970363511 L 120 521.2346869614313 L 130 524.0151682678666 L 140 526.7662470218824 L 150 529.4552211565156 L 160 532.050120252635 L 170 534.5200377318413 L 180 536.8354521101984 L 190 538.9685340718335 L 200 540.8934362639687 L 210 542.5865628885227 L 220 544.0268163682816 L 230 545.1958185957787 L 240 546.0781045281202 L 250 546.6612861685079 L 260 546.9361852723658 L 270 546.8969334297977 L 280 546.5410385034447 L 290 545.8694167384181 L 300 544.8863902054547 L 310 543.5996495863509 L 320 542.0201826585877 L 330 540.1621691803908 L 340 538.0428432148228 L 350 535.6823242585119 L 360 533.1034188540124 L 370 530.3313946614206 L 380 527.3937292417833 L 390 524.3198360592465 L 400 521.1407704382718 L 410 517.8889184142766 L 420 514.5976715887425 L 430 511.30109124141165 L 440 508.03356506127807 L 450 504.8294599335512 L 460 501.72277426088533 L 470 498.74679330350295 L 480 495.9337509943369 L 490 493.3145016222411 L 500 490.91820467931683 L 510 488.77202603841715 L 520 486.900858465239 L 530 485.32706427768744 L 540 484.07024274532176 L 550 483.14702457585435 L 560 482.57089556633207 L 570 482.35205120646333 L 580 482.4972837134693 L 590 483.0099026549013 L 600 483.88968998130827 L 610 485.13288994779504 L 620 486.73223405580734 L 630 488.6770007973893 L 640 490.95310963716133 L 650 493.543248325834 L 660 496.42703230661357 L 670 499.58119465568564 L 680 502.9798046932835 L 690 506.59451311570865 L 700 510.39482123391167 L 710 514.3483716635313 L 720 518.4212575970114 L 730 522.5783476027244 L 740 526.783622740775 L 750 531.0005226618912 L 760 535.192297265767 L 770 539.3223604392956 L 780 543.3546423738937 L 790 547.2539369747686 L 800 550.9862409233932"/>
<path d="M 0 550 L 0 526.3131522624512 L 10 527.9429588219664 L 20 529.8119765098307 L 30 531.8959697483864 L 40 534.168521843509 L 50 536.6013129138759 L 60 539.1644168841656 L 70 541.8266145396626 L 80 544.5557194792266 L 90 547.3189136747699 L 100 550.0830892495392 L 110 552.8151930255975 L 120 555.4825703635444 L 130 558.0533048249931 L 140 560.4965502305461 L 150 562.7828517625612 L 160 564.8844528721194 L 170 566.7755848921785 L 180 568.4327364324998 L 190 569.8348998348447 L 200 570.9637921971033 L 210 571.8040487301558 L 220 572.3433864888138 L 230 572.5727368153723 L 240 572.4863451481569 L 250 572.0818371748204 L 260 571.3602506477743 L 270 570.3260325236396 L 280 568.98700143653 L 290 567.3542758628647 L 300 565.4421686797473 L 310 563.2680491563314 L 320 560.8521737446038 L 330 558.2174873494281 L 340 555.3893970543274 L 350 552.395520556406 L 360 549.2654118182317 L 370 546.030266673878 L 380 542.7226113283658 L 390 539.3759768624184 L 400 536.0245629960336 L 410 532.7028944734465 L 420 529.4454735075257 L 430 526.2864317627547 L 440 523.2591853622697 L 450 520.3960963759129 L 460 517.7281441831672 L 470 515.2846100078218 L 480 513.0927777912099 L 490 511.17765440919186 L 500 509.5617120463033 L 510 508.26465532059115 L 520 507.3032155067974 L 530 506.6909739361741 L 540 506.43821636102535 L 550 506.55181976394897 L 560 507.0351727687844 L 570 507.88813047568055 L 580 509.10700419981833 L 590 510.68458624558076 L 600 512.6102094988339 L 610 514.8698412729493 L 620 517.4462105027208 L 630 520.3189670478306 L 640 523.4648715473106 L 650 526.8580139617175 L 660 530.4700586535633 L 670 534.2705135917379 L 680 538.2270210249062 L 690 542.3056667545436 L 700 546.4713049525315 L 710 550.6878953129458 L 720 554.9188492043515 L 730 559.127381398836 L 740 563.2768638980431 L 750 567.331178355189 L 760 571.2550636056485 L 770 575.0144548670773 L 780 578.5768112526786 L 790 581.9114283573331 L 800 584.9897328247058"/>
<path d="M 0 575 L 0 558.0144174542056 L 10 560.2915078628257 L 20 562.7260303664816 L 30 565.2880545621705 L 40 567.9463639340507 L 50 570.6687817996661 L 60 573.4225068451315 L 70 576.1744548616372 L 80 578.8916032337738 L 90 581.5413347028622 L 100 584.0917769359979 L 110 586.5121344737862 L 120 588.7730097063346 L 130 590.8467096372309 L 140 592.707535337849 L 150 594.3320511679655 L 160 595.699331041621 L 170 596.7911792473602 L 180 597.5923235871627 L 190 598.0905788759538 L 200 598.2769791408077 L 210 598.1458771728364 L 220 597.6950104121601 L 230 596.9255324840152 L 240 595.8420100485841 L 250 594.4523849750818 L 260 592.7679021985444 L 270 590.8030039621282 L 280 588.5751914851268 L 290 586.1048554239484 L 300 583.4150768067177 L 310 580.5314004188215 L 320 577.481582893647 L 330 574.2953180171969 L 340 571.003941984645 L 350 567.6401215489481 L 360 564.2375281743044 L 370 560.8305014488412 L 380 557.4537051199782 L 390 554.1417791913899 L 400 550.9289915615808 L 410 547.8488926904095 L 420 544.9339767513696 L 430 542.215352664335 L 440 539.7224283064411 L 450 537.4826110687555 L 460 535.5210277647013 L 470 533.8602667044232 L 480 532.5201445293706 L 490 531.5175001554808 L 500 530.866017903947 L 510 530.5760816083395 L 520 530.6546611786949 L 530 531.1052327801942 L 540 531.9277334494224 L 550 533.1185506282927 L 560 534.6705467479397 L 570 536.5731186457201 L 580 538.812291251389 L 590 541.3708446370064 L 600 544.2284731925868 L 610 547.3619753692573 L 620 550.7454721269224 L 630 554.3506519372131 L 640 558.1470399276475 L 650 562.1022885121422 L 660 566.1824866386384 L 670 570.352484598834 L 680 574.57623118967 L 690 578.817119892862 L 700 583.038340648642 L 710 587.2032337438586 L 720 591.2756423132637 L 730 595.2202599663748 L 740 599.002970100638 L 750 602.5911735442186 L 760 605.9541012878134 L 770 609.0631092132339 L 780 611.8919519056883 L 790 614.4170328448878 L 800 616.6176285052574"/>


    </g>
</svg>
