<svg width="2186" height="1031" xmlns="http://www.w3.org/2000/svg" xmlns:xlink="http://www.w3.org/1999/xlink" xml:space="preserve" overflow="hidden"><defs><clipPath id="clip0"><rect x="252" y="591" width="2186" height="1031"/></clipPath><clipPath id="clip1"><rect x="252" y="591" width="2186" height="1031"/></clipPath></defs><g clip-path="url(#clip0)" transform="translate(-252 -591)"><g clip-path="url(#clip1)"><path d="M1281.39 606.076C1287.2 596.011 1300.07 592.563 1310.14 598.376L1383.04 640.473C1393.1 646.286 1396.55 659.157 1390.74 669.223L872.919 1565.9C867.107 1575.96 854.235 1579.41 844.17 1573.6L771.272 1531.5C761.207 1525.69 757.759 1512.81 763.572 1502.75Z" fill="#F4F4F4" fill-rule="evenodd" fill-opacity="1"/><path d="M0 21.0453C-4.28705e-15 9.4223 9.42232 0 21.0453 0L105.225 0C116.849-4.28705e-15 126.271 9.4223 126.271 21.0453L126.271 1056.5C126.271 1068.12 116.849 1077.54 105.225 1077.54L21.0453 1077.54C9.42232 1077.54 0 1068.12 0 1056.5Z" fill="#F4F4F4" fill-rule="evenodd" fill-opacity="1" transform="matrix(-0.865974 0.500089 0.500089 0.865974 1383.27 631.712)"/><path d="M2323.6 603.987C2329.42 593.922 2342.29 590.474 2352.35 596.287L2425.25 638.385C2435.32 644.197 2438.76 657.069 2432.95 667.134L1915.13 1563.81C1909.32 1573.87 1896.45 1577.32 1886.39 1571.51L1813.49 1529.41C1803.42 1523.6 1799.97 1510.73 1805.79 1500.66Z" fill="#F4F4F4" fill-rule="evenodd" fill-opacity="1"/><path d="M0 0 126.13 0 126.13 944.244 0.122927 869.822C0.0818315 579.881 0.041096 289.941 0 0Z" fill="#333333" fill-rule="evenodd" fill-opacity="1" transform="matrix(-0.865974 0.500089 0.500089 0.865974 367.931 618.481)"/><path d="M0 21.0432C-3.05036e-15 9.42138 9.42139-3.05036e-15 21.0433-3.05036e-15L105.213 0C116.835-3.05036e-15 126.256 9.42138 126.256 21.0432L126.256 745.659C126.256 757.281 116.835 766.703 105.213 766.703L21.0433 766.703C9.42139 766.703 3.05036e-15 757.281 0 745.659Z" fill="#333333" fill-rule="evenodd" fill-opacity="1" transform="matrix(-0.865974 0.500089 0.500089 0.865974 355.455 600.446)"/></g></g></svg>