<svg width="2699" height="1032" xmlns="http://www.w3.org/2000/svg" xmlns:xlink="http://www.w3.org/1999/xlink" xml:space="preserve" overflow="hidden"><defs><clipPath id="clip0"><rect x="41" y="320" width="2699" height="1032"/></clipPath><clipPath id="clip1"><rect x="41" y="320" width="2699" height="1032"/></clipPath></defs><g clip-path="url(#clip0)" transform="translate(-41 -320)"><g clip-path="url(#clip1)"><path d="M1073.02 335.897C1078.83 325.832 1091.7 322.385 1101.77 328.197L1174.67 370.295C1184.73 376.107 1188.18 388.979 1182.37 399.044L664.549 1295.72C658.736 1305.78 645.865 1309.23 635.799 1303.42L562.901 1261.32C552.836 1255.51 549.389 1242.64 555.201 1232.57Z" fill="#F4F4F4" fill-rule="evenodd" fill-opacity="1"/><path d="M0 21.0453C-4.28705e-15 9.4223 9.42232 0 21.0453 0L105.225 0C116.849-4.28705e-15 126.271 9.4223 126.271 21.0453L126.271 1056.5C126.271 1068.12 116.849 1077.54 105.225 1077.54L21.0453 1077.54C9.42232 1077.54 0 1068.12 0 1056.5Z" fill="#F4F4F4" fill-rule="evenodd" fill-opacity="1" transform="matrix(-0.865974 0.500089 0.500089 0.865974 1176.52 362.488)"/><path d="M2115.98 335.897C2121.79 325.832 2134.67 322.385 2144.73 328.197L2217.63 370.295C2227.69 376.107 2231.14 388.979 2225.33 399.044L1707.51 1295.72C1701.7 1305.78 1688.83 1309.23 1678.76 1303.42L1605.86 1261.32C1595.8 1255.51 1592.35 1242.64 1598.16 1232.57Z" fill="#F4F4F4" fill-rule="evenodd" fill-opacity="1"/><path d="M0 0 126.13 0 126.13 944.244 0.122927 869.822C0.0818315 579.881 0.041096 289.941 0 0Z" fill="#367294" fill-rule="evenodd" fill-opacity="1" transform="matrix(-0.865974 0.500089 0.500089 0.865974 158.039 347.478)"/><path d="M0 21.0432C-3.05036e-15 9.42138 9.42139-3.05036e-15 21.0433-3.05036e-15L105.213 0C116.835-3.05036e-15 126.256 9.42138 126.256 21.0432L126.256 745.659C126.256 757.281 116.835 766.703 105.213 766.703L21.0433 766.703C9.42139 766.703 3.05036e-15 757.281 0 745.659Z" fill="#367294" fill-rule="evenodd" fill-opacity="1" transform="matrix(-0.865974 0.500089 0.500089 0.865974 145.563 329.443)"/><path d="M0 0 126.103 0 126.103 944.189 0.1229 869.771C0.0818135 579.847 0.0410869 289.923 0 0Z" fill="#E26A23" fill-rule="evenodd" fill-opacity="1" transform="matrix(0.865974 -0.500089 -0.500089 -0.865974 2612.6 1275.04)"/><path d="M0 21.0326C-3.14636e-15 9.4166 9.41665 0 21.0327 0L105.162 0C116.779-6.2927e-15 126.195 9.4166 126.195 21.0326L126.195 769.797C126.195 781.413 116.779 790.83 105.162 790.83L21.0327 790.83C9.41665 790.83 0 781.413 0 769.797Z" fill="#E26A23" fill-rule="evenodd" fill-opacity="1" transform="matrix(0.865974 -0.500089 -0.500089 -0.865974 2637.1 1313.97)"/></g></g></svg>